<?xml version="1.0" encoding="UTF-8" standalone="no"?>
<!DOCTYPE svg PUBLIC "-//W3C//DTD SVG 1.1//EN" "http://www.w3.org/Graphics/SVG/1.1/DTD/svg11.dtd">
<svg version="1.1" xmlns="http://www.w3.org/2000/svg" xmlns:xlink="http://www.w3.org/1999/xlink" preserveAspectRatio="xMidYMid meet" viewBox="339.7812499999999 84.375 29.68750000000034 22.5" width="29.69" height="22.5"><defs><path d="M339.78 84.38L369.47 84.38L369.47 85.91C367.11 85.9 363.46 85.9 358.51 85.9C358.16 85.9 357.63 85.9 356.91 85.91L339.78 85.9L339.78 84.38Z" id="b7OjU7Y1TB"></path><path d="M339.78 99.72L369.47 99.72L369.47 101.25C367.11 101.25 363.46 101.25 358.51 101.25C358.16 101.25 357.63 101.25 356.91 101.25L339.78 101.25L339.78 99.72Z" id="b1tx1RhIS"></path><path d="M363.53 100C363.53 103.79 359.54 106.88 354.62 106.88C349.71 106.88 345.72 103.79 345.72 100C345.72 96.21 349.71 93.12 354.62 93.12C359.54 93.12 363.53 96.21 363.53 100Z" id="f7vbD8D86x"></path></defs><g><g><g><use xlink:href="#b7OjU7Y1TB" opacity="1" fill="#3a3a3a" fill-opacity="1"></use></g><g><use xlink:href="#b1tx1RhIS" opacity="1" fill="#3a3a3a" fill-opacity="1"></use></g><g><use xlink:href="#f7vbD8D86x" opacity="1" fill="#000000" fill-opacity="1"></use></g></g></g></svg>